# xmcd
#
# Track frame offsets: 
#        150
#        13907
#        26796
#        47466
#        62965
#        77167
#        96985
#        106733
#        126425
#        140533
#        154352
#        168802
#        184969
#        198648
#        213751
#        229948
#        243508
#        257009
#        269966
#        281501
#
# Disc length: 4203 seconds
#
# Revision: 0
# Processed by: cddbd v1.5.2PL0 Copyright (c) Steve Scherf et al.
# Submitted via: ExactAudioCopy v1.0b3
#
DISCID=2f106914
DTITLE=The Miracles - Renaissance and Do It Baby
DYEAR=2012
DGENRE=Soul
TTITLE0=What Is A Heart Good For
TTITLE1=If You're Ever In The Neighborhood
TTITLE2=I Wanna Be With You
TTITLE3=Wigs And Lashes
TTITLE4=Don't Let It End ('Til You Let It Begin)
TTITLE5=I Love You Secretly
TTITLE6=I Don't Need No Reason
TTITLE7=Nowhere To Go
TTITLE8=I Didn't Realize The Show Was Over
TTITLE9=Do It Baby
TTITLE10=Up Again
TTITLE11=Where Are You Going To My Love
TTITLE12=What Is A Heart Good For
TTITLE13=You Are Love
TTITLE14=Give Me Just Another Day
TTITLE15=We Feel The Same
TTITLE16=Calling Out Your Name
TTITLE17=A Foolish Thing To Say
TTITLE18=Can't Get Ready For Losing You
TTITLE19=Do It Baby - "A Tom Moulton Mix"
EXTD=
EXTT0=
EXTT1=
EXTT2=
EXTT3=
EXTT4=
EXTT5=
EXTT6=
EXTT7=
EXTT8=
EXTT9=
EXTT10=
EXTT11=
EXTT12=
EXTT13=
EXTT14=
EXTT15=
EXTT16=
EXTT17=
EXTT18=
EXTT19=
PLAYORDER=
